<svg xmlns="http://www.w3.org/2000/svg" width="980" height="560" viewBox="0 0 980 560" role="img" aria-label="Outlook - Μηνύματα">
  <defs>
    <filter id="shadow" x="-20%" y="-20%" width="140%" height="140%"><feDropShadow dx="0" dy="6" stdDeviation="8" flood-color="#0f172a" flood-opacity="0.16"/></filter>
    <marker id="arrow" viewBox="0 0 10 10" refX="8" refY="5" markerWidth="8" markerHeight="8" orient="auto-start-reverse"><path d="M0,0 L10,5 L0,10 z" fill="#ef4444"/></marker>
  </defs>
  <rect width="100%" height="100%" rx="28" fill="#f8fafc"/>
  <rect x="48" y="42" width="884" height="468" rx="24" fill="white" filter="url(#shadow)"/>
  <text x="76" y="92" font-family="Arial, sans-serif" font-size="30" font-weight="700" fill="#0f172a">Outlook - Μηνύματα</text>
  <text x="76" y="126" font-family="Arial, sans-serif" font-size="18" fill="#475569">Δημιουργία, παραλήπτες, επισυναπτόμενα, πρόχειρα και αποστολή</text>
  <rect x="76" y="150" width="828" height="52" rx="12" fill="#e2e8f0"/>

<rect x="86" y="160" width="110" height="32" rx="8" fill="#0ea5e9"/>
<text x="141.0" y="181" text-anchor="middle" font-family="Arial, sans-serif" font-size="14" font-weight="700" fill="white">Αρχείο</text>
<rect x="204" y="160" width="110" height="32" rx="8" fill="#0ea5e9"/>
<text x="259.0" y="181" text-anchor="middle" font-family="Arial, sans-serif" font-size="14" font-weight="700" fill="white">Κεντρική</text>
<rect x="322" y="160" width="110" height="32" rx="8" fill="#ffffff"/>
<text x="377.0" y="181" text-anchor="middle" font-family="Arial, sans-serif" font-size="14" font-weight="700" fill="#334155">Αποστολή/Λήψη</text>
<rect x="440" y="160" width="110" height="32" rx="8" fill="#ffffff"/>
<text x="495.0" y="181" text-anchor="middle" font-family="Arial, sans-serif" font-size="14" font-weight="700" fill="#334155">Φάκελος</text>
<rect x="558" y="160" width="110" height="32" rx="8" fill="#ffffff"/>
<text x="613.0" y="181" text-anchor="middle" font-family="Arial, sans-serif" font-size="14" font-weight="700" fill="#334155">Προβολή</text>
<rect x="76" y="218" width="828" height="176" rx="16" fill="#f8fafc" stroke="#cbd5e1"/>
<rect x="96" y="238" width="170" height="130" rx="14" fill="#eef6ff" stroke="#0ea5e9" stroke-width="4"/>
<rect x="114" y="260" width="30" height="26" rx="6" fill="white" stroke="#94a3b8"/>
<text x="129" y="278" text-anchor="middle" font-family="Arial, sans-serif" font-size="12" font-weight="700" fill="#334155">Νέο</text>
<rect x="156" y="260" width="30" height="26" rx="6" fill="white" stroke="#94a3b8"/>
<text x="171" y="278" text-anchor="middle" font-family="Arial, sans-serif" font-size="12" font-weight="700" fill="#334155">Mail</text>
<text x="181.0" y="352" text-anchor="middle" font-family="Arial, sans-serif" font-size="15" font-weight="700" fill="#334155">Δημιουργία</text>
<rect x="282" y="238" width="110" height="130" rx="14" fill="#f8fbff" stroke="#cbd5e1" stroke-width="1"/>
<rect x="300" y="260" width="30" height="26" rx="6" fill="white" stroke="#94a3b8"/>
<text x="315" y="278" text-anchor="middle" font-family="Arial, sans-serif" font-size="12" font-weight="700" fill="#334155">Χ</text>
<text x="337.0" y="352" text-anchor="middle" font-family="Arial, sans-serif" font-size="15" font-weight="700" fill="#334155">Διαγραφή</text>
<rect x="408" y="238" width="160" height="130" rx="14" fill="#fff7ed" stroke="#cbd5e1" stroke-width="1"/>
<rect x="426" y="260" width="30" height="26" rx="6" fill="white" stroke="#94a3b8"/>
<text x="441" y="278" text-anchor="middle" font-family="Arial, sans-serif" font-size="12" font-weight="700" fill="#334155">Απ</text>
<rect x="468" y="260" width="30" height="26" rx="6" fill="white" stroke="#94a3b8"/>
<text x="483" y="278" text-anchor="middle" font-family="Arial, sans-serif" font-size="12" font-weight="700" fill="#334155">Προω</text>
<text x="488.0" y="352" text-anchor="middle" font-family="Arial, sans-serif" font-size="15" font-weight="700" fill="#334155">Απάντηση</text>
<rect x="584" y="238" width="180" height="130" rx="14" fill="#f0fdf4" stroke="#0ea5e9" stroke-width="4"/>
<rect x="602" y="260" width="30" height="26" rx="6" fill="white" stroke="#94a3b8"/>
<text x="617" y="278" text-anchor="middle" font-family="Arial, sans-serif" font-size="12" font-weight="700" fill="#334155">Συν</text>
<rect x="644" y="260" width="30" height="26" rx="6" fill="white" stroke="#94a3b8"/>
<text x="659" y="278" text-anchor="middle" font-family="Arial, sans-serif" font-size="12" font-weight="700" fill="#334155">Υπ</text>
<text x="674.0" y="352" text-anchor="middle" font-family="Arial, sans-serif" font-size="15" font-weight="700" fill="#334155">Συμπερίληψη</text>
<rect x="780" y="238" width="150" height="130" rx="14" fill="#fdf2f8" stroke="#cbd5e1" stroke-width="1"/>
<rect x="798" y="260" width="30" height="26" rx="6" fill="white" stroke="#94a3b8"/>
<text x="813" y="278" text-anchor="middle" font-family="Arial, sans-serif" font-size="12" font-weight="700" fill="#334155">Σημ</text>
<rect x="840" y="260" width="30" height="26" rx="6" fill="white" stroke="#94a3b8"/>
<text x="855" y="278" text-anchor="middle" font-family="Arial, sans-serif" font-size="12" font-weight="700" fill="#334155">Κατ</text>
<text x="855.0" y="352" text-anchor="middle" font-family="Arial, sans-serif" font-size="15" font-weight="700" fill="#334155">Ετικέτες</text>
<rect x="946" y="238" width="150" height="130" rx="14" fill="#f5f3ff" stroke="#0ea5e9" stroke-width="4"/>
<rect x="964" y="260" width="30" height="26" rx="6" fill="white" stroke="#94a3b8"/>
<text x="979" y="278" text-anchor="middle" font-family="Arial, sans-serif" font-size="12" font-weight="700" fill="#334155">Εισ</text>
<rect x="1006" y="260" width="30" height="26" rx="6" fill="white" stroke="#94a3b8"/>
<text x="1021" y="278" text-anchor="middle" font-family="Arial, sans-serif" font-size="12" font-weight="700" fill="#334155">Προ</text>
<text x="1021.0" y="352" text-anchor="middle" font-family="Arial, sans-serif" font-size="15" font-weight="700" fill="#334155">Φάκελοι</text>
<rect x="76" y="418" width="828" height="54" rx="14" fill="#eff6ff" stroke="#bfdbfe"/>
<text x="96" y="452" font-family="Arial, sans-serif" font-size="18" font-weight="700" fill="#1d4ed8">Πρωτότυπη εκπαιδευτική εικόνα - όχι αντιγραφή παρουσίασης</text>
<line x1="160" y1="473" x2="181.0" y2="258" stroke="#ef4444" stroke-width="4" marker-end="url(#arrow)"/>
<circle cx="160" cy="455" r="20" fill="#ef4444"/>
<text x="160" y="462" text-anchor="middle" font-family="Arial, sans-serif" font-size="20" font-weight="700" fill="white">1</text>
<rect x="188" y="439" width="140" height="34" rx="12" fill="#fff1f2" stroke="#fecdd3"/>
<text x="202" y="461" font-family="Arial, sans-serif" font-size="15" font-weight="700" fill="#991b1b">Νέο μήνυμα</text>
<line x1="570" y1="473" x2="674.0" y2="258" stroke="#ef4444" stroke-width="4" marker-end="url(#arrow)"/>
<circle cx="570" cy="455" r="20" fill="#ef4444"/>
<text x="570" y="462" text-anchor="middle" font-family="Arial, sans-serif" font-size="20" font-weight="700" fill="white">2</text>
<rect x="598" y="439" width="160" height="34" rx="12" fill="#fff1f2" stroke="#fecdd3"/>
<text x="612" y="461" font-family="Arial, sans-serif" font-size="15" font-weight="700" fill="#991b1b">Συνημμένο/Παραλήπτες</text>
</svg>